<?xml version="1.0" encoding="utf-8"?><svg version="1.1" id="Layer_1" xmlns="http://www.w3.org/2000/svg" xmlns:xlink="http://www.w3.org/1999/xlink" x="0px" y="0px" viewBox="0 0 122.87 84.59" style="enable-background:new 0 0 122.87 84.59" xml:space="preserve"><style type="text/css">.st0{fill-rule:evenodd;clip-rule:evenodd;fill:#262626;} .st1{fill-rule:evenodd;clip-rule:evenodd;fill:#86D4ED;} .st2{fill-rule:evenodd;clip-rule:evenodd;fill:#EB665F;} .st3{fill-rule:evenodd;clip-rule:evenodd;fill:#DE5149;} .st4{fill-rule:evenodd;clip-rule:evenodd;fill:#66BCD9;} .st5{fill-rule:evenodd;clip-rule:evenodd;fill:#7DF485;} .st6{fill-rule:evenodd;clip-rule:evenodd;fill:#F7F760;} .st7{fill-rule:evenodd;clip-rule:evenodd;fill:#E0E016;} .st8{fill-rule:evenodd;clip-rule:evenodd;fill:#5AE063;}</style><g><path class="st0" d="M31.31,8.55C36.02,0.39,46.55-2.43,54.7,2.28l0,0c8.16,4.71,10.97,15.24,6.27,23.39 c-9.73,16.86-19.44,33.55-29.18,50.41l0,0c-2.34,4.06-6.14,6.79-10.35,7.92c-4.22,1.13-8.87,0.66-12.93-1.69l0,0 c-4.06-2.34-6.79-6.14-7.92-10.35c-1.13-4.22-0.66-8.87,1.69-12.93l0,0C12,42.16,21.56,25.43,31.31,8.55L31.31,8.55L31.31,8.55z"/><path class="st1" d="M43.21,50.95L18.42,36.64L4.97,59.94l0,0C3,63.35,2.61,67.25,3.56,70.8c0.95,3.55,3.24,6.73,6.64,8.7l0,0 c3.41,1.97,7.31,2.36,10.86,1.41c3.54-0.95,6.73-3.24,8.7-6.65l0,0L43.21,50.95L43.21,50.95L43.21,50.95z"/><path class="st2" d="M44.9,48.01L20.11,33.7l13.45-23.28l0,0c1.97-3.41,5.15-5.7,8.7-6.65c3.55-0.95,7.45-0.56,10.85,1.4l0,0 c3.41,1.97,5.7,5.15,6.65,8.7c0.95,3.54,0.56,7.45-1.41,10.86l0,0L44.9,48.01L44.9,48.01z"/><path class="st3" d="M26.23,37.23l-6.12-3.54l13.45-23.28l0,0c1.97-3.41,5.15-5.7,8.7-6.65c1.17-0.31,2.37-0.48,3.58-0.49 L26.23,37.23L26.23,37.23z"/><path class="st4" d="M24.56,40.16l-6.12-3.53L5,59.91l0,0c-1.97,3.41-2.36,7.31-1.41,10.86c0.31,1.17,0.77,2.29,1.36,3.35 L24.56,40.16L24.56,40.16z"/><path class="st0" d="M90.94,8.55c4.71-8.16,15.24-10.97,23.39-6.27l0,0c8.16,4.71,10.97,15.24,6.27,23.39 c-9.73,16.86-19.44,33.55-29.18,50.41l0,0c-2.34,4.06-6.14,6.79-10.35,7.92c-4.22,1.13-8.87,0.66-12.93-1.69l0,0 c-4.06-2.34-6.79-6.14-7.92-10.35c-1.13-4.22-0.66-8.87,1.69-12.93l0,0C71.63,42.16,81.19,25.43,90.94,8.55L90.94,8.55L90.94,8.55z"/><path class="st5" d="M102.83,50.95L78.04,36.64l-13.45,23.3l0,0c-1.97,3.41-2.36,7.31-1.41,10.86c0.95,3.55,3.24,6.73,6.64,8.7l0,0 c3.41,1.97,7.31,2.36,10.86,1.41c3.54-0.95,6.73-3.24,8.7-6.65l0,0L102.83,50.95L102.83,50.95L102.83,50.95z"/><path class="st6" d="M104.52,48.01L79.73,33.7l13.45-23.28l0,0c1.97-3.41,5.15-5.7,8.7-6.65c3.55-0.95,7.45-0.56,10.85,1.4l0,0 c3.41,1.97,5.7,5.15,6.65,8.7c0.95,3.54,0.56,7.45-1.41,10.86l0,0L104.52,48.01L104.52,48.01z"/><path class="st7" d="M85.86,37.23l-6.12-3.54l13.45-23.28l0,0c1.97-3.41,5.15-5.7,8.7-6.65c1.17-0.31,2.37-0.48,3.58-0.49 L85.86,37.23L85.86,37.23z"/><path class="st8" d="M84.18,40.16l-6.12-3.53L64.62,59.91l0,0c-1.97,3.41-2.36,7.31-1.41,10.86c0.31,1.17,0.77,2.29,1.36,3.35 L84.18,40.16L84.18,40.16z"/></g></svg>